<svg xmlns="http://www.w3.org/2000/svg" width="1285" height="887" viewBox="0 0 1285 887">
  <g id="sushi" transform="translate(-103 -95)">
    <rect id="frame" width="1285" height="887" transform="translate(103 95)" fill="#fff" opacity="0"/>
    <circle id="bg2" cx="199" cy="199" r="199" transform="translate(431 281)" fill="#fff" opacity="0.11"/>
    <circle id="bg1" cx="52.5" cy="52.5" r="52.5" transform="translate(807 257)" fill="#fff" opacity="0.11"/>
    <g id="bowl" transform="translate(50 12)">
      <path id="Path_46" data-name="Path 46" d="M809.08,702.573s260.756,116.79,354.776,107.241,149.109-72.718,96.957-80.063S1009.6,702.573,1009.6,702.573s-50.682,27.177-90.347,27.177S809.08,702.573,809.08,702.573Z" transform="translate(-206)" fill="#0a8b61"/>
      <path id="Path_1" data-name="Path 1" d="M869,624c-12.687.034-92.5-14.5-117-39L596,429s1.636-39,273-39,273,39,273,39L986,585C951.625,619.375,881.688,623.966,869,624Z" transform="translate(-162 103)" fill="none" stroke="#fff" stroke-width="12"/>
      <path id="Path_2" data-name="Path 2" d="M596,429s.543,29.514,273,28.944S1142,429,1142,429" transform="translate(-162 103)" fill="none" stroke="#fff" stroke-width="12"/>
    </g>
    <path id="chopstick2" d="M-197.075,380.513c-1.274.431-3.92.85-4.484-2.812C-202.31,372.838-206,8.2-206,8.2a7.469,7.469,0,0,1,2.5-4.594A24.714,24.714,0,0,1-197.6.461V0s.2.092.522.256c.428-.165.689-.256.689-.256V.618a17.032,17.032,0,0,1,4.178,2.988A8.575,8.575,0,0,1-190.314,8.2s-2.8,364.639-3.364,369.5c-.29,2.481-1.3,3.089-2.228,3.089A2.946,2.946,0,0,1-197.075,380.513Z" transform="matrix(0.629, 0.777, -0.777, 0.629, 1195.845, 535.549)" fill="#fff"/>
    <path id="chopstick1" d="M-197.075,380.513c-1.274.431-3.92.85-4.484-2.812C-202.31,372.838-206,8.2-206,8.2a7.469,7.469,0,0,1,2.5-4.594A24.714,24.714,0,0,1-197.6.461V0s.2.092.522.256c.428-.165.689-.256.689-.256V.618a17.032,17.032,0,0,1,4.178,2.988A8.575,8.575,0,0,1-190.314,8.2s-2.8,364.639-3.364,369.5c-.29,2.481-1.3,3.089-2.228,3.089A2.946,2.946,0,0,1-197.075,380.513Z" transform="translate(1154.979 475.064) rotate(44)" fill="#fff"/>
    <g id="sushi2" transform="translate(392.952 130.402) rotate(31)">
      <path id="Union_3" data-name="Union 3" d="M.023,54.853H0V8.147H.023A1.6,1.6,0,0,1,0,7.875C0,3.526,17.911,0,40,0S80.01,3.526,80.01,7.875a1.594,1.594,0,0,1-.023.272h.023V54.853h-.023c-.726,4.224-18.349,7.6-39.982,7.6S.75,59.077.023,54.853Z" transform="translate(481 296)"/>
      <ellipse id="Ellipse_3" data-name="Ellipse 3" cx="36.505" cy="8.5" rx="36.505" ry="8.5" transform="translate(485 299)" fill="#fff"/>
    </g>
    <g id="sushi1" transform="matrix(1, 0, 0, 1, 241, 370)">
      <path id="Union_3-2" data-name="Union 3" d="M.023,54.853H0V8.147H.023A1.6,1.6,0,0,1,0,7.875C0,3.526,17.911,0,40,0S80.01,3.526,80.01,7.875a1.594,1.594,0,0,1-.023.272h.023V54.853h-.023c-.726,4.224-18.349,7.6-39.982,7.6S.75,59.077.023,54.853Z" transform="translate(481 296)"/>
      <ellipse id="Ellipse_3-2" data-name="Ellipse 3" cx="36.505" cy="8.5" rx="36.505" ry="8.5" transform="translate(485 299)" fill="#fff"/>
    </g>
  </g>
</svg>
